<svg id="visual" viewBox="0 0 400 950" width="400" height="950" xmlns="http://www.w3.org/2000/svg" xmlns:xlink="http://www.w3.org/1999/xlink" version="1.1"><path d="M143 0L138.8 22.7C134.7 45.3 126.3 90.7 113.7 135.8C101 181 84 226 83.5 271.2C83 316.3 99 361.7 112 407C125 452.3 135 497.7 131.2 543C127.3 588.3 109.7 633.7 107.2 678.8C104.7 724 117.3 769 116.8 814.2C116.3 859.3 102.7 904.7 95.8 927.3L89 950L0 950L0 927.3C0 904.7 0 859.3 0 814.2C0 769 0 724 0 678.8C0 633.7 0 588.3 0 543C0 497.7 0 452.3 0 407C0 361.7 0 316.3 0 271.2C0 226 0 181 0 135.8C0 90.7 0 45.3 0 22.7L0 0Z" fill="#ffffff" stroke-linecap="round" stroke-linejoin="miter"></path></svg>